<svg xmlns="http://www.w3.org/2000/svg" width="243.326" height="243.326" viewBox="0 0 243.326 243.326"><defs><style>.a{fill:#407061;fill-rule:evenodd;}</style></defs><path class="a" d="M141.2,241.7a122.2,122.2,0,0,1-19.861,1.622C54.363,243.326,0,188.811,0,121.663S54.363,0,121.339,0,242.667,54.515,242.667,121.663a122.564,122.564,0,0,1-1.632,19.983L221.6,134.8a102.155,102.155,0,0,0,.852-13.14c0-55.955-45.309-101.386-101.112-101.386S20.226,65.708,20.226,121.663s45.3,101.386,101.112,101.386a101.69,101.69,0,0,0,13.464-.892l6.4,19.547Zm-11.893-101.4a20.293,20.293,0,1,1,12.247-18.645,20,20,0,0,1-.943,6.124l98.679,34.735-37.127,19.527,41.163,42.308-19,18.523L182.87,200.146,160.9,236.858l-31.592-96.55Zm-.943,62.16q-3.483.3-7.026.3a81.109,81.109,0,1,1,80.886-81.109q0,3.148-.233,6.235l-9.926-3.488.051-2.748a70.783,70.783,0,1,0-70.777,70.97l3.772-.1,3.254,9.936Zm-9.885-30.193A50.689,50.689,0,1,1,171.7,117.243l-10.747-3.782a40.463,40.463,0,1,0-45.918,48.27l3.447,10.544Z"/></svg>