<svg xmlns="http://www.w3.org/2000/svg" width="42" height="42" viewBox="0 0 42 42"><defs><style>.a{fill:#caceac;}</style></defs><g transform="translate(0 0)"><path class="a" d="M24.667,38.667A2.333,2.333,0,1,0,27,36.333,2.34,2.34,0,0,0,24.667,38.667ZM24.667,6v9.333h4.667v-4.48a16.306,16.306,0,1,1-14.992,5.822L27,29.333l3.3-3.3L14.435,10.165l-.023.047A20.98,20.98,0,1,0,26.988,6ZM41,27a2.333,2.333,0,1,0-2.333,2.333A2.34,2.34,0,0,0,41,27ZM13,27a2.333,2.333,0,1,0,2.333-2.333A2.34,2.34,0,0,0,13,27Z" transform="translate(-6 -6)"/></g></svg>